<svg width="1000" height="308" viewBox="0 0 1000 308" fill="none" xmlns="http://www.w3.org/2000/svg">
<g clip-path="url(#clip0_26_27)">
<path d="M60.574 3.54517H82.0094L142.029 142.8H113.683L100.721 110.924H40.349L27.7399 142.8H0L60.574 3.54517ZM92.0462 89.6903L70.6108 33.0504L48.7719 89.6903H92.0462Z" fill="white"/>
<path d="M226.207 32.6468C223.584 29.2172 219.902 26.3927 215.111 24.0727C210.319 21.803 205.528 20.643 200.636 20.643C197.761 20.643 194.886 20.996 191.961 21.7021C189.086 22.4083 186.463 23.5179 184.092 25.0309C181.722 26.544 179.805 28.511 178.292 30.932C176.779 33.3529 176.023 36.2782 176.023 39.7079C176.023 42.8349 176.678 45.5585 177.99 47.7777C179.301 49.9969 181.117 51.9135 183.386 53.477C185.656 55.0405 188.48 56.4023 191.759 57.6128C195.037 58.7728 198.669 59.9833 202.603 61.1433C207.041 62.606 211.681 64.2199 216.473 66.0861C221.264 67.9018 225.652 70.3732 229.636 73.3489C233.621 76.3751 236.899 80.1578 239.472 84.7475C242.044 89.3372 243.305 95.0365 243.305 101.845C243.305 109.31 241.943 115.867 239.169 121.415C236.395 127.013 232.763 131.603 228.174 135.285C223.584 138.966 218.187 141.69 212.034 143.556C205.881 145.372 199.375 146.33 192.566 146.33C183.538 146.33 174.661 144.666 165.986 141.337C157.311 138.008 150.25 133.065 144.752 126.509L162.455 109.966C165.885 114.707 170.424 118.439 176.124 121.162C181.823 123.936 187.421 125.298 192.919 125.298C195.794 125.298 198.769 124.945 201.796 124.239C204.822 123.533 207.545 122.323 209.966 120.608C212.387 118.893 214.354 116.775 215.867 114.202C217.38 111.63 218.137 108.453 218.137 104.67C218.137 100.887 217.28 97.9618 215.565 95.5409C213.85 93.1199 211.58 91.0016 208.655 89.2363C205.78 87.4711 202.35 85.9075 198.416 84.5962C194.482 83.2848 190.347 81.9231 186.009 80.4604C181.823 79.1491 177.637 77.5855 173.4 75.7194C169.214 73.9037 165.431 71.4828 162.102 68.4566C158.773 65.4304 156.05 61.7486 153.932 57.3606C151.813 52.9726 150.805 47.4751 150.805 40.9184C150.805 33.8573 152.267 27.7545 155.243 22.61C158.168 17.5159 162.052 13.2793 166.843 9.90006C171.635 6.57126 177.082 4.04945 183.185 2.43549C189.287 0.821528 195.491 -0.0358887 201.796 -0.0358887C208.857 -0.0358887 216.069 1.22502 223.332 3.6964C230.595 6.16777 236.95 9.95049 242.296 14.8932L226.156 32.5964L226.207 32.6468Z" fill="white"/>
<path d="M338.528 32.6468C335.906 29.2172 332.224 26.3927 327.432 24.0727C322.641 21.803 317.849 20.643 312.957 20.643C310.082 20.643 307.207 20.996 304.282 21.7021C301.407 22.4083 298.785 23.5179 296.414 25.0309C294.044 26.544 292.127 28.511 290.614 30.932C289.101 33.3529 288.344 36.2782 288.344 39.7079C288.344 42.8349 289 45.5585 290.311 47.7777C291.623 49.9969 293.438 51.9135 295.708 53.477C297.978 55.0405 300.802 56.4023 304.08 57.6128C307.359 58.7728 310.99 59.9833 314.924 61.1433C319.363 62.606 324.003 64.2199 328.794 66.0861C333.586 67.9018 337.974 70.3732 341.958 73.3489C345.942 76.3751 349.221 80.1578 351.793 84.7475C354.365 89.3372 355.626 95.0365 355.626 101.845C355.626 109.31 354.264 115.867 351.49 121.415C348.716 127.013 345.085 131.603 340.495 135.285C335.906 138.966 330.509 141.69 324.356 143.556C318.202 145.372 311.696 146.33 304.887 146.33C295.859 146.33 286.982 144.666 278.307 141.337C269.632 138.008 262.571 133.065 257.074 126.509L274.777 109.966C278.207 114.707 282.746 118.439 288.445 121.162C294.144 123.936 299.743 125.298 305.24 125.298C308.115 125.298 311.091 124.945 314.117 124.239C317.143 123.533 319.867 122.323 322.288 120.608C324.709 118.893 326.676 116.775 328.189 114.202C329.702 111.63 330.458 108.453 330.458 104.67C330.458 100.887 329.601 97.9618 327.886 95.5409C326.171 93.1199 323.902 91.0016 320.976 89.2363C318.102 87.4711 314.672 85.9075 310.738 84.5962C306.804 83.2848 302.668 81.9231 298.331 80.4604C294.144 79.1491 289.958 77.5855 285.722 75.7194C281.535 73.9037 277.753 71.4828 274.424 68.4566C271.095 65.4304 268.371 61.7486 266.253 57.3606C264.135 52.9726 263.126 47.4751 263.126 40.9184C263.126 33.8573 264.589 27.7545 267.564 22.61C270.49 17.5159 274.373 13.2793 279.165 9.90006C283.956 6.57126 289.403 4.04945 295.506 2.43549C301.609 0.821528 307.813 -0.0358887 314.117 -0.0358887C321.178 -0.0358887 328.391 1.22502 335.653 3.6964C342.916 6.16777 349.271 9.95049 354.617 14.8932L338.478 32.5964L338.528 32.6468Z" fill="white"/>
<path d="M379.835 3.54517H472.083V25.1823H404.6V60.5886H468.502V81.4188H404.6V120.759H475.614V142.8H379.835V3.54517Z" fill="white"/>
<path d="M499.218 3.54517H537.953L574.167 102.501H574.772L610.582 3.54517H649.518V142.8H624.905V30.8816H624.502L582.236 142.8H564.937L523.226 30.8816H522.822V142.8H499.218V3.54517Z" fill="white"/>
<path d="M679.578 3.54517H733.848C739.093 3.54517 744.288 4.1504 749.382 5.41131C754.476 6.67222 759.066 8.68967 763.05 11.5141C767.035 14.3385 770.313 17.9699 772.785 22.4083C775.256 26.8467 776.517 32.2434 776.517 38.5479C776.517 46.416 774.298 52.9223 769.809 58.0163C765.37 63.1104 759.52 66.7923 752.307 69.0115V69.4149C761.083 70.575 768.296 74.0046 773.945 79.6535C779.593 85.3024 782.418 92.8174 782.418 102.249C782.418 109.865 780.905 116.27 777.879 121.415C774.852 126.61 770.918 130.745 765.976 133.923C761.033 137.05 755.434 139.32 749.079 140.732C742.725 142.144 736.269 142.8 729.712 142.8H679.528V3.54517H679.578ZM704.342 60.1851H726.383C734.655 60.1851 740.959 58.5711 745.246 55.2423C749.584 51.964 751.753 47.3239 751.753 41.2715C751.753 35.2191 749.533 30.5286 745.045 27.9059C740.606 25.2832 733.646 23.9719 724.214 23.9719H704.342V60.1851ZM704.342 121.97H726.585C729.712 121.97 733.142 121.717 736.823 121.263C740.505 120.81 743.885 119.851 746.961 118.389C750.038 116.926 752.61 114.858 754.627 112.084C756.645 109.31 757.654 105.679 757.654 101.089C757.654 93.7252 755.182 88.6312 750.189 85.7563C745.196 82.8814 737.681 81.4188 727.543 81.4188H704.342V121.919V121.97Z" fill="white"/>
<path d="M806.274 3.54517H831.039V120.759H890.251V142.8H806.274V3.54517Z" fill="white"/>
<path d="M922.933 82.4275L870.631 3.54517H900.943L935.946 62.1521L971.352 3.54517H1000.05L947.748 82.4275V142.8H922.984V82.4275H922.933Z" fill="white"/>
<path d="M62.7427 285.938H63.1461L108.387 164.992H123.518L70.2072 304.246H55.2781L2.1687 164.941H17.5013L62.7427 285.887V285.938Z" fill="white"/>
<path d="M157.159 291.637H231.704V304.246H142.987V164.992H229.334V177.601H157.159V225.414H224.643V238.023H157.159V291.738V291.637Z" fill="white"/>
<path d="M358.602 283.567H359.005V164.941H373.178V304.196H355.475L274.424 184.41H274.02V304.196H259.848V164.941H277.551L358.602 283.567Z" fill="white"/>
<path d="M455.187 304.196H441.015V177.5H394.412V164.891H501.79V177.5H455.187V304.196Z" fill="white"/>
<path d="M574.368 307.777C563.878 307.777 555.303 305.961 548.595 302.38C541.887 298.799 536.592 294.209 532.658 288.712C528.724 283.214 526 277.212 524.487 270.706C522.974 264.2 522.217 258.097 522.217 252.297V164.941H536.39V250.683C536.39 256.332 537.046 261.779 538.357 267.125C539.668 272.421 541.787 277.162 544.762 281.298C547.738 285.433 551.622 288.762 556.464 291.334C561.305 293.907 567.257 295.168 574.368 295.168C581.48 295.168 587.431 293.907 592.273 291.334C597.115 288.762 601.049 285.433 603.974 281.298C606.9 277.162 609.069 272.471 610.38 267.125C611.691 261.829 612.347 256.332 612.347 250.683V164.941H626.519V252.297C626.519 258.047 625.763 264.2 624.25 270.706C622.737 277.212 620.013 283.214 616.079 288.712C612.145 294.209 606.799 298.799 600.04 302.38C593.282 305.961 584.708 307.777 574.368 307.777Z" fill="white"/>
<path d="M677.208 304.196H663.035V164.941H703.939C710.748 164.941 717.103 165.597 722.903 166.908C728.754 168.22 733.797 170.338 738.034 173.314C742.271 176.239 745.599 180.122 747.97 184.813C750.34 189.554 751.5 195.304 751.5 202.113C751.5 207.207 750.592 211.897 748.726 216.084C746.911 220.27 744.389 223.901 741.262 226.978C738.135 230.054 734.352 232.526 730.065 234.341C725.727 236.157 721.037 237.368 715.892 237.872L756.594 304.145H739.295L700.761 239.032H677.157V304.145L677.208 304.196ZM677.208 226.877H701.821C713.219 226.877 721.995 224.809 728.199 220.673C734.352 216.537 737.429 210.334 737.429 202.062C737.429 197.473 736.571 193.589 734.856 190.462C733.142 187.335 730.771 184.763 727.795 182.796C724.769 180.829 721.087 179.366 716.8 178.458C712.463 177.55 707.671 177.096 702.426 177.096H677.258V226.877H677.208Z" fill="white"/>
<path d="M795.43 291.637H869.975V304.246H781.258V164.992H867.605V177.601H795.43V225.414H862.914V238.023H795.43V291.738V291.637Z" fill="white"/>
<path d="M965.603 187.385C962.576 183.199 958.693 179.82 954.002 177.248C949.261 174.675 943.562 173.414 936.904 173.414C933.475 173.414 930.045 173.919 926.464 174.978C922.934 176.037 919.706 177.651 916.831 179.82C913.956 181.989 911.636 184.712 909.87 187.991C908.105 191.269 907.197 195.153 907.197 199.591C907.197 204.029 908.055 207.711 909.719 210.586C911.434 213.461 913.653 215.932 916.478 217.95C919.302 219.967 922.48 221.632 926.111 222.943C929.692 224.254 933.475 225.566 937.409 226.877C942.251 228.44 947.092 230.155 952.035 231.971C956.928 233.787 961.366 236.208 965.3 239.133C969.234 242.058 972.412 245.841 974.933 250.33C977.455 254.819 978.666 260.568 978.666 267.529C978.666 274.489 977.354 280.491 974.681 285.534C972.008 290.578 968.578 294.764 964.342 298.043C960.105 301.321 955.263 303.742 949.816 305.305C944.369 306.869 938.922 307.676 933.374 307.676C929.188 307.676 924.951 307.272 920.765 306.415C916.579 305.558 912.544 304.297 908.761 302.582C904.978 300.867 901.397 298.698 898.119 296.076C894.841 293.453 891.966 290.427 889.444 287.047L901.649 278.019C904.676 283.013 908.912 287.148 914.359 290.528C919.806 293.856 926.212 295.521 933.525 295.521C937.056 295.521 940.687 294.966 944.369 293.856C948.051 292.747 951.329 291.032 954.305 288.762C957.23 286.493 959.702 283.668 961.568 280.289C963.484 276.96 964.443 273.026 964.443 268.588C964.443 263.746 963.484 259.711 961.568 256.483C959.651 253.255 957.129 250.582 954.002 248.413C950.875 246.244 947.244 244.429 943.158 243.017C939.073 241.604 934.836 240.142 930.348 238.679C925.758 237.216 921.219 235.602 916.78 233.736C912.342 231.921 908.307 229.5 904.776 226.574C901.246 223.649 898.371 219.967 896.202 215.68C894.034 211.343 892.974 206.047 892.974 199.742C892.974 193.034 894.336 187.284 897.009 182.443C899.682 177.601 903.213 173.616 907.55 170.439C911.888 167.261 916.679 164.992 921.925 163.579C927.17 162.167 932.365 161.411 937.459 161.411C946.891 161.411 954.961 163.075 961.669 166.404C968.377 169.733 973.42 173.717 976.799 178.307L965.603 187.335V187.385Z" fill="white"/>
</g>
<defs>
<clipPath id="clip0_26_27">
<rect width="1000" height="307.791" fill="white"/>
</clipPath>
</defs>
</svg>
