<svg width="1008" height="293" viewBox="0 0 1008 293" fill="none" xmlns="http://www.w3.org/2000/svg">
<g clip-path="url(#clip0_24_10)" filter="url(#filter0_d_24_10)">
<path d="M51.1579 2.26099H79.7529L110.947 82.2816H81.6743L77.4924 70.5272H52.0621L48.1063 82.2816H19.6244L51.1579 2.26099ZM65.0598 30.1778L58.5045 49.9569H71.5022L65.0598 30.1778Z" fill="white"/>
<path d="M148.923 84.5422C145.682 84.5422 142.499 84.2619 139.375 83.7013C136.247 83.1362 133.231 82.3133 130.333 81.2283C127.431 80.1388 124.7 78.8684 122.141 77.4036C119.578 75.9433 117.281 74.3113 115.247 72.5119L131.635 54.704C133.516 56.7384 136.025 58.5468 139.149 60.1291C142.273 61.7114 145.496 62.5026 148.815 62.5026C150.32 62.5026 151.699 62.2404 152.938 61.7114C154.181 61.1825 154.801 60.2014 154.801 58.7683C154.801 58.0133 154.593 57.3713 154.177 56.8424C153.761 56.3134 153.028 55.7664 151.97 55.2013C150.913 54.6362 149.466 54.0123 147.621 53.3341C145.772 52.656 143.457 51.8648 140.668 50.9561C137.955 50.0519 135.356 48.9759 132.869 47.7282C130.383 46.4849 128.177 44.9523 126.26 43.1439C124.343 41.3356 122.815 39.1655 121.685 36.6338C120.554 34.102 119.989 31.0685 119.989 27.5196C119.989 22.5375 121.006 18.3104 123.041 14.8383C125.075 11.3662 127.693 8.51805 130.898 6.28923C134.099 4.06041 137.698 2.46 141.694 1.47895C145.686 0.497909 149.642 0.00512695 153.562 0.00512695C158.833 0.00512695 164.204 1.02234 169.665 3.05676C175.127 5.09118 179.932 8.02979 184.078 11.8726L167.351 28.9391C165.542 26.6787 163.318 24.9652 160.682 23.7943C158.042 22.6279 155.669 22.0402 153.562 22.0402C151.6 22.0402 150.017 22.3205 148.815 22.8901C147.608 23.4552 147.006 24.3775 147.006 25.6569C147.006 26.864 147.63 27.7682 148.869 28.3695C150.112 28.9753 152.129 29.7258 154.918 30.63C157.78 31.5342 160.795 32.5921 163.96 33.7946C167.125 35.0017 170.045 36.5614 172.722 38.4874C175.393 40.4088 177.6 42.7642 179.331 45.5491C181.063 48.3385 181.931 51.806 181.931 55.9472C181.931 60.7711 180.972 64.971 179.046 68.5516C177.125 72.1322 174.598 75.107 171.474 77.4805C168.345 79.854 164.823 81.6262 160.904 82.7926C156.984 83.959 152.992 84.5467 148.923 84.5467V84.5422Z" fill="white"/>
<path d="M221.823 84.5422C218.582 84.5422 215.399 84.2619 212.275 83.7013C209.147 83.1362 206.131 82.3133 203.233 81.2283C200.331 80.1388 197.6 78.8684 195.041 77.4036C192.478 75.9433 190.181 74.3113 188.147 72.5119L204.535 54.704C206.416 56.7384 208.925 58.5468 212.049 60.1291C215.173 61.7114 218.396 62.5026 221.715 62.5026C223.22 62.5026 224.599 62.2404 225.838 61.7114C227.081 61.1825 227.701 60.2014 227.701 58.7683C227.701 58.0133 227.493 57.3713 227.077 56.8424C226.661 56.3134 225.928 55.7664 224.87 55.2013C223.813 54.6362 222.366 54.0123 220.521 53.3341C218.672 52.656 216.357 51.8648 213.568 50.9561C210.856 50.0519 208.256 48.9759 205.769 47.7282C203.283 46.4849 201.077 44.9523 199.16 43.1439C197.243 41.3356 195.715 39.1655 194.585 36.6338C193.454 34.102 192.889 31.0685 192.889 27.5196C192.889 22.5375 193.907 18.3104 195.941 14.8383C197.975 11.3662 200.593 8.51805 203.798 6.28923C206.999 4.06041 210.598 2.46 214.594 1.47895C218.586 0.497909 222.542 0.00512695 226.462 0.00512695C231.733 0.00512695 237.104 1.02234 242.565 3.05676C248.027 5.09118 252.832 8.02979 256.978 11.8726L240.251 28.9391C238.442 26.6787 236.218 24.9652 233.582 23.7943C230.942 22.6279 228.569 22.0402 226.462 22.0402C224.5 22.0402 222.917 22.3205 221.715 22.8901C220.508 23.4552 219.906 24.3775 219.906 25.6569C219.906 26.864 220.53 27.7682 221.769 28.3695C223.012 28.9753 225.029 29.7258 227.818 30.63C230.68 31.5342 233.695 32.5921 236.86 33.7946C240.025 35.0017 242.945 36.5614 245.622 38.4874C248.293 40.4088 250.5 42.7642 252.231 45.5491C253.963 48.3385 254.831 51.806 254.831 55.9472C254.831 60.7711 253.872 64.971 251.946 68.5516C250.025 72.1322 247.498 75.107 244.374 77.4805C241.245 79.854 237.723 81.6262 233.804 82.7926C229.884 83.959 225.892 84.5467 221.823 84.5467V84.5422Z" fill="white"/>
<path d="M269.067 2.26099H324.11V24.6396H294.384V31.5341H322.301V52.4434H294.384V59.903H326.031V82.2816H269.067V2.26099Z" fill="white"/>
<path d="M365.901 37.0722L367.144 82.2816H342.053V2.26099H377.244L391.729 45.3229H392.294L404.854 2.26099H441.175V82.2816H414.953L415.745 37.2983L415.066 37.1852L400.147 82.2816H381.159L366.466 37.0722H365.901Z" fill="white"/>
<path d="M511.851 40.689C513.731 41.1411 515.58 41.8734 517.389 42.8952C519.197 43.9169 520.816 45.1963 522.249 46.738C523.677 48.2841 524.808 50.0744 525.64 52.1089C526.467 54.1433 526.883 56.4037 526.883 58.8903C526.883 63.262 525.997 66.933 524.225 69.9123C522.452 72.8916 520.115 75.3013 517.217 77.1458C514.315 78.9949 511.001 80.3105 507.271 81.1016C503.541 81.8928 499.717 82.2861 495.797 82.2861H459.516V2.26099H492.406C495.643 2.26099 499.093 2.50512 502.75 2.99338C506.403 3.48616 509.776 4.46268 512.868 5.93199C515.956 7.40129 518.519 9.54874 520.554 12.3743C522.588 15.1999 523.605 18.9116 523.605 23.5049C523.605 27.7998 522.529 31.3442 520.386 34.1291C518.239 36.9185 515.395 38.9891 511.851 40.3454V40.6844V40.689ZM484.612 23.1703V33.0034H491.846C493.726 33.0034 495.272 32.5694 496.48 31.7013C497.682 30.8378 498.288 29.4951 498.288 27.6867C498.288 26.1813 497.646 25.051 496.367 24.296C495.083 23.5456 493.387 23.1658 491.28 23.1658H484.612V23.1703ZM484.612 50.296V61.1462H492.637C494.743 61.1462 496.461 60.676 497.782 59.7357C499.097 58.7953 499.762 57.421 499.762 55.6126C499.762 54.5592 499.481 53.6912 498.912 53.013C498.342 52.3349 497.65 51.7879 496.823 51.3765C495.991 50.9651 495.11 50.6802 494.165 50.5265C493.22 50.3773 492.338 50.3005 491.506 50.3005H484.612V50.296Z" fill="white"/>
<path d="M541.313 2.26099H568.439V59.1118H595V82.2816H541.313V2.26099Z" fill="white"/>
<path d="M644.133 82.2816H617.234V49.5048L587.056 2.26099H619.494L632.153 25.7699L644.246 2.26099H675.893L644.133 49.5048V82.2816Z" fill="white"/>
<path d="M71.362 284.101C64.879 284.101 58.5135 283.536 52.261 282.415C46.004 281.289 39.9776 279.639 34.1773 277.464C28.3724 275.289 22.9111 272.74 17.7889 269.819C12.6621 266.894 8.06884 263.635 4 260.036L36.7768 224.424C40.5427 228.493 45.5519 232.11 51.8089 235.275C58.0614 238.439 64.5037 240.022 71.1359 240.022C74.1469 240.022 76.9001 239.497 79.3867 238.435C81.8732 237.377 83.1164 235.415 83.1164 232.549C83.1164 231.039 82.7005 229.759 81.8732 228.697C81.0413 227.639 79.572 226.545 77.4653 225.415C75.354 224.284 72.4515 223.036 68.7624 221.676C65.0688 220.319 60.4349 218.733 54.8606 216.92C49.4354 215.111 44.2364 212.959 39.2633 210.468C34.2903 207.977 29.8824 204.921 26.0396 201.295C22.1968 197.67 19.1451 193.334 16.8847 188.275C14.6242 183.216 13.494 177.144 13.494 170.042C13.494 160.082 15.5284 151.628 19.5972 144.684C23.6661 137.74 28.9013 132.039 35.3075 127.586C41.7091 123.133 48.9065 119.923 56.895 117.961C64.879 115.999 72.7906 115.013 80.6299 115.013C91.1773 115.013 101.914 117.048 112.842 121.116C123.764 125.185 133.371 131.063 141.663 138.748L108.208 172.881C104.591 168.36 100.142 164.933 94.8709 162.596C89.5949 160.263 84.8479 159.092 80.6299 159.092C76.7103 159.092 73.5456 159.657 71.1359 160.788C68.7218 161.918 67.5192 163.767 67.5192 166.326C67.5192 168.74 68.7624 170.548 71.249 171.751C73.7355 172.958 77.7636 174.464 83.3425 176.272C89.066 178.08 95.0969 180.192 101.426 182.601C107.756 185.015 113.592 188.139 118.945 191.982C124.293 195.825 128.701 200.536 132.169 206.11C135.632 211.689 137.368 218.62 137.368 226.906C137.368 236.554 135.446 244.954 131.603 252.111C127.761 259.272 122.711 265.221 116.458 269.968C110.201 274.715 103.158 278.26 95.323 280.593C87.4837 282.925 79.4997 284.096 71.362 284.096V284.101Z" fill="#E76F61"/>
<path d="M233.365 284.101C220.856 284.101 209.969 282.365 200.702 278.902C191.434 275.439 183.707 270.692 177.532 264.661C171.352 258.634 166.754 251.514 163.743 243.299C160.727 235.089 159.222 226.233 159.222 216.739V119.539H213.021V210.862C213.021 218.547 214.866 224.537 218.559 228.832C222.248 233.127 227.488 235.275 234.27 235.275C241.051 235.275 246.286 233.127 249.98 228.832C253.669 224.537 255.518 218.547 255.518 210.862V119.539H309.091V216.739C309.091 226.233 307.468 235.089 304.231 243.299C300.99 251.514 296.206 258.634 289.877 264.661C283.548 270.692 275.672 275.439 266.255 278.902C256.834 282.365 245.87 284.101 233.365 284.101Z" fill="#E76F61"/>
<path d="M387.552 189.161L390.038 279.58H339.856V119.539H410.233L439.204 205.662H440.334L465.452 119.539H538.099V279.58H485.656L487.239 189.613L485.882 189.387L456.044 279.58H418.068L388.682 189.161H387.552Z" fill="#E76F61"/>
<path d="M617.962 189.161L620.448 279.58H570.266V119.539H640.643L669.613 205.662H670.743L695.862 119.539H768.509V279.58H716.066L717.648 189.613L716.292 189.387L686.454 279.58H648.478L619.092 189.161H617.962Z" fill="#E76F61"/>
<path d="M800.653 119.539H854.904V279.58H800.653V119.539Z" fill="#E76F61"/>
<path d="M964.668 279.58H910.869V164.974H871.537V119.539H1004V164.974H964.668V279.58Z" fill="#E76F61"/>
</g>
<defs>
<filter id="filter0_d_24_10" x="0" y="0" width="1008" height="292.101" filterUnits="userSpaceOnUse" color-interpolation-filters="sRGB">
<feFlood flood-opacity="0" result="BackgroundImageFix"/>
<feColorMatrix in="SourceAlpha" type="matrix" values="0 0 0 0 0 0 0 0 0 0 0 0 0 0 0 0 0 0 127 0" result="hardAlpha"/>
<feOffset dy="4"/>
<feGaussianBlur stdDeviation="2"/>
<feComposite in2="hardAlpha" operator="out"/>
<feColorMatrix type="matrix" values="0 0 0 0 0 0 0 0 0 0 0 0 0 0 0 0 0 0 0.25 0"/>
<feBlend mode="normal" in2="BackgroundImageFix" result="effect1_dropShadow_24_10"/>
<feBlend mode="normal" in="SourceGraphic" in2="effect1_dropShadow_24_10" result="shape"/>
</filter>
<clipPath id="clip0_24_10">
<rect width="1000" height="284.101" fill="white" transform="translate(4)"/>
</clipPath>
</defs>
</svg>
